<?xml version="1.0" encoding="utf-8"?>
<!-- Generator: Adobe Illustrator 18.1.0, SVG Export Plug-In . SVG Version: 6.00 Build 0)  -->
<svg version="1.1" id="Layer_1" xmlns="http://www.w3.org/2000/svg" xmlns:xlink="http://www.w3.org/1999/xlink" x="0px" y="0px"
	 viewBox="0 0 20.9 25.5" enable-background="new 0 0 20.9 25.5" xml:space="preserve">
<path d="M20.4,20.7c0-0.6-1.3-1.2-2-2.4C17.8,17.3,16.3,8,14.7,6c-0.7-0.9-2.5-1.6-3.7-1.8V2.4c1.3,0.2,3.1,0.9,3.7,1.8
	c0.1,0.1,0.2,0.3,0.3,0.5h4.9c0,0-1.1-0.8-1.7-2.4c-0.6-1.6-0.2-1.9-0.2-1.9H2.8c0,0,0.3,0.7-0.2,1.9C2.2,3.5,1,4.7,1,4.7h4.9
	C6,4.5,6.1,4.3,6.2,4.2c0.7-0.9,2.5-1.6,3.7-1.8v1.8C8.6,4.4,6.9,5.1,6.2,6c-1.6,2-3,11.2-3.7,12.4c-0.7,1.1-2,1.8-2,2.4
	c0,0.5,0.4,1,0.9,1l0,0h5.3l1-1.3l-1.5-1.6l1.6-2.3l-1.6-3.1l2.3-5.3l-1.3,5.5l2.2,3l-1.5,2l1.6,1.6l-1.5,1.5h1.7v0.5
	c-0.5,0.3-0.8,0.8-0.8,1.4c0,0.9,0.7,1.6,1.6,1.6c0.9,0,1.6-0.7,1.6-1.6c0-0.6-0.3-1.1-0.8-1.4v-0.5h8.3l0,0
	C20.1,21.7,20.4,21.2,20.4,20.7z"/>
</svg>
